#!OML:ASF F:\VICON\USERDATA\INSTALL\rory3\rory3.ASF
:FULLY-SPECIFIED
:DEGREES
17
root 1.15941 17.1484 -23.2837 1.43635 4.70406 3.05564
lowerback 19.2061 0.269915 -4.41927
upperback 2.76839 -0.760981 -2.52571
thorax -7.73831 -0.271543 -0.0207683
lowerneck -3.77352 -0.751107 -0.681589
upperneck -13.8501 -0.732519 2.44922
head -3.83216 -0.413288 0.943434
rclavicle 3.57812e-015 -9.54166e-015
rhumerus -44.1254 13.4162 -92.0363
rradius 83.178
rwrist 4.31213
rhand -39.1977 32.736
rfingers 7.12502
rthumb -12.1942 3.11142
lclavicle 3.57812e-015 -9.54166e-015
lhumerus -33.6903 -22.2314 92.908
lradius 111.622
lwrist 32.1052
lhand -38.5945 16.4548
lfingers 7.12502
lthumb -11.6126 46.113
rfemur -15.3102 -12.4302 13.8225
rtibia 109.382
rfoot 29.1505 -7.96588
rtoes 25.3702
lfemur -22.2236 -3.68323 -27.8128
ltibia 44.8038
lfoot -16.9526 -2.27656
ltoes -10.0502
18
root 1.15182 17.1169 -22.8229 1.88618 4.53812 2.91432
lowerback 19.0352 0.30278 -4.37049
upperback 2.74596 -0.692601 -2.45786
thorax -7.67176 -0.240273 0.00772175
lowerneck -3.50079 -0.787288 -0.473206
upperneck -14.2687 -0.806544 2.1644
head -4.03365 -0.452957 0.820888
rclavicle -4.77083e-015 3.49861e-014
rhumerus -45.6037 11.7397 -91.5935
rradius 83.158
rwrist 4.13875
rhand -39.5353 34.1239
rfingers 7.12502
rthumb -12.5198 4.51897
lclavicle -4.77083e-015 3.49861e-014
lhumerus -30.5769 -23.5416 92.0196
lradius 112.117
lwrist 31.3101
lhand -37.554 15.4178
lfingers 7.12502
lthumb -10.609 45.13
rfemur -19.2943 -12.7669 14.1093
rtibia 111.812
rfoot 27.1392 -7.66752
rtoes 23.6676
lfemur -20.9892 -3.98262 -27.5913
ltibia 44.9963
lfoot -18.2427 -1.83505
ltoes -10.0347
19
root 1.15022 17.0881 -22.3742 2.47736 2.94266 2.73266
lowerback 18.7521 0.904205 -4.41782
upperback 2.6043 0.0866003 -2.55366
thorax -7.6957 0.134559 -0.264129
lowerneck -3.05363 -0.810057 0.11457
upperneck -14.9035 -0.868203 1.76672
head -4.35271 -0.502517 0.596644
rclavicle -5.56597e-015 -2.94201e-014
rhumerus -47.0077 9.76922 -91.1894
rradius 82.9076
rwrist 4.23885
rhand -38.2018 32.2449
rfingers 7.12502
rthumb -11.2339 2.56572
lclavicle -5.56597e-015 -2.94201e-014
lhumerus -27.4506 -25.0284 90.9772
lradius 112.673
lwrist 30.7112
lhand -37.3725 14.7373
lfingers 7.12502
lthumb -10.434 44.4584
rfemur -24.1348 -11.267 14.8985
rtibia 113.844
rfoot 23.8335 -7.21934
rtoes 15.584
lfemur -19.8606 -2.87773 -27.4891
ltibia 44.8516
lfoot -19.4706 -0.772222
ltoes -12.9013
20
root 1.14568 17.0485 -21.9424 4.00234 -0.547976 2.74829
lowerback 17.4059 1.98749 -5.36248
upperback 2.12473 1.38577 -2.62084
thorax -7.537 0.786652 -0.101992
lowerneck -2.50946 -0.601169 0.448252
upperneck -15.5394 -0.625876 1.30457
head -4.6988 -0.385905 0.383538
rclavicle -1.39149e-015 -7.95139e-015
rhumerus -48.1662 8.80003 -90.8642
rradius 82.7215
rwrist 3.61794
rhand -38.8767 32.1412
rfingers 7.12502
rthumb -11.8848 2.49854
lclavicle -1.39149e-015 -7.95139e-015
lhumerus -24.7791 -25.5932 90.0244
lradius 113.478
lwrist 30.0576
lhand -36.6734 11.5113
lfingers 7.12502
lthumb -9.75952 41.2651
rfemur -31.1368 -7.2345 15.9014
rtibia 115.871
rfoot 22.6895 -7.01269
rtoes 11.8716
lfemur -19.7015 -0.321445 -27.8071
ltibia 44.4662
lfoot -20.4088 0.327422
ltoes -13.4198
21
root 1.16834 17.1072 -21.4097 3.01562 4.18782 3.04175
lowerback 18.6103 -0.104887 -4.27035
upperback 2.60598 -1.17537 -2.30713
thorax -7.57655 -0.474237 0.232174
lowerneck -2.21255 -0.233283 -0.262395
upperneck -15.7798 -0.152939 1.20769
head -4.84973 -0.110423 0.462642
rclavicle -8.94531e-015 -2.38542e-014
rhumerus -49.4104 9.11742 -90.4539
rradius 82.6205
rwrist 2.81386
rhand -40.051 32.2816
rfingers 7.12502
rthumb -13.017 2.70769
lclavicle -8.94531e-015 -2.38542e-014
lhumerus -22.6343 -25.239 89.5487
lradius 114.424
lwrist 29.3186
lhand -36.7877 9.93941
lfingers 7.12502
lthumb -9.86983 39.6881
rfemur -30.6096 -12.7457 15.0057
rtibia 115.432
rfoot 20.5246 -5.64759
rtoes 12.0768
lfemur -15.6499 -4.26619 -27.9401
ltibia 43.3136
lfoot -20.8527 0.093801
ltoes -14.1293
22
root 1.16248 17.1529 -20.9259 3.09191 3.93893 3.24949
lowerback 19.0393 -0.349062 -4.63705
upperback 2.51361 -1.59215 -2.19156
thorax -7.88277 -0.655151 0.672301
lowerneck -2.38578 0.162895 -0.66948
upperneck -15.7456 0.372639 1.19754
head -4.8092 0.172301 0.512444
rclavicle 4.17448e-015 1.39149e-014
rhumerus -50.701 9.24527 -90.2828
rradius 82.6716
rwrist 2.31122
rhand -39.1904 32.1768
rfingers 7.12502
rthumb -12.1873 2.55183
lclavicle 4.17448e-015 1.39149e-014
lhumerus -20.4691 -24.8207 88.7873
lradius 115.283
lwrist 28.1165
lhand -36.5978 10.4335
lfingers 7.12502
lthumb -9.68661 40.1907
rfemur -33.742 -12.1227 15.2684
rtibia 115.339
rfoot 18.8332 -5.50873
rtoes 8.43218
lfemur -13.1006 -4.12866 -28.239
ltibia 41.9005
lfoot -20.9556 0.495699
ltoes -15.7271
